<svg width="276" height="30" viewBox="0 0 276 30" fill="none" xmlns="http://www.w3.org/2000/svg">
<path d="M268 17C268.556 17 269.028 16.8056 269.417 16.4167C269.806 16.0278 270 15.5556 270 15C270 14.4444 269.806 13.9722 269.417 13.5833C269.028 13.1944 268.556 13 268 13C267.444 13 266.972 13.1944 266.583 13.5833C266.194 13.9722 266 14.4444 266 15C266 15.5556 266.194 16.0278 266.583 16.4167C266.972 16.8056 267.444 17 268 17ZM268 17.6667C267.257 17.6667 266.627 17.4079 266.11 16.8904C265.592 16.3729 265.333 15.7427 265.333 15C265.333 14.2573 265.592 13.6271 266.11 13.1096C266.627 12.5921 267.257 12.3333 268 12.3333C268.743 12.3333 269.373 12.5921 269.89 13.1096C270.408 13.6271 270.667 14.2573 270.667 15C270.667 15.7427 270.408 16.3729 269.89 16.8904C269.373 17.4079 268.743 17.6667 268 17.6667ZM261.333 15.3333C261.239 15.3333 261.16 15.3013 261.096 15.2374C261.032 15.1734 261 15.0941 261 14.9996C261 14.905 261.032 14.8259 261.096 14.7622C261.16 14.6985 261.239 14.6667 261.333 14.6667H263C263.094 14.6667 263.174 14.6987 263.238 14.7626C263.301 14.8266 263.333 14.9059 263.333 15.0005C263.333 15.095 263.301 15.1742 263.238 15.2378C263.174 15.3015 263.094 15.3333 263 15.3333H261.333ZM273 15.3333C272.906 15.3333 272.826 15.3013 272.763 15.2374C272.699 15.1734 272.667 15.0941 272.667 14.9996C272.667 14.905 272.699 14.8259 272.763 14.7622C272.826 14.6985 272.906 14.6667 273 14.6667H274.667C274.761 14.6667 274.84 14.6987 274.904 14.7626C274.968 14.8266 275 14.9059 275 15.0005C275 15.095 274.968 15.1742 274.904 15.2378C274.84 15.3015 274.761 15.3333 274.667 15.3333H273ZM268 10.3333C267.905 10.3333 267.826 10.3014 267.762 10.2375C267.699 10.1736 267.667 10.0944 267.667 10V8.33333C267.667 8.23889 267.699 8.15972 267.763 8.09583C267.827 8.03194 267.906 8 268 8C268.095 8 268.174 8.03194 268.238 8.09583C268.301 8.15972 268.333 8.23889 268.333 8.33333V10C268.333 10.0944 268.301 10.1736 268.237 10.2375C268.173 10.3014 268.094 10.3333 268 10.3333ZM268 22C267.905 22 267.826 21.9681 267.762 21.9042C267.699 21.8403 267.667 21.7611 267.667 21.6667V20C267.667 19.9056 267.699 19.8264 267.763 19.7625C267.827 19.6986 267.906 19.6667 268 19.6667C268.095 19.6667 268.174 19.6986 268.238 19.7625C268.301 19.8264 268.333 19.9056 268.333 20V21.6667C268.333 21.7611 268.301 21.8403 268.237 21.9042C268.173 21.9681 268.094 22 268 22ZM264.241 11.6872L263.281 10.7564C263.216 10.694 263.184 10.6175 263.185 10.5269C263.187 10.4363 263.22 10.3543 263.285 10.2808C263.356 10.2073 263.434 10.1705 263.521 10.1705C263.607 10.1705 263.685 10.2073 263.756 10.2808L264.7 11.2282C264.771 11.3017 264.806 11.3803 264.806 11.4641C264.806 11.5479 264.773 11.6265 264.706 11.7C264.64 11.7735 264.564 11.8075 264.479 11.8019C264.394 11.7964 264.315 11.7581 264.241 11.6872ZM272.244 19.7192L271.3 18.7718C271.229 18.6983 271.194 18.619 271.194 18.534C271.194 18.4489 271.229 18.3709 271.3 18.3C271.358 18.2265 271.431 18.1925 271.518 18.1981C271.605 18.2036 271.685 18.2419 271.759 18.3128L272.719 19.2436C272.784 19.306 272.816 19.3825 272.815 19.4731C272.813 19.5637 272.78 19.6457 272.715 19.7192C272.644 19.7927 272.566 19.8295 272.479 19.8295C272.393 19.8295 272.315 19.7927 272.244 19.7192ZM271.3 11.7064C271.227 11.6398 271.193 11.5639 271.198 11.4789C271.204 11.3938 271.242 11.3145 271.313 11.241L272.244 10.2808C272.306 10.2158 272.382 10.184 272.473 10.1853C272.564 10.1865 272.646 10.2197 272.719 10.2847C272.793 10.3556 272.829 10.4342 272.829 10.5205C272.829 10.6068 272.793 10.6855 272.719 10.7564L271.772 11.7C271.698 11.7709 271.62 11.8064 271.536 11.8064C271.452 11.8064 271.374 11.7731 271.3 11.7064ZM263.281 19.722C263.207 19.6467 263.171 19.5658 263.171 19.4795C263.171 19.3932 263.207 19.3145 263.281 19.2436L264.228 18.3C264.302 18.2291 264.381 18.1936 264.466 18.1936C264.551 18.1936 264.629 18.2291 264.7 18.3C264.765 18.3581 264.795 18.4308 264.789 18.518C264.784 18.6051 264.75 18.6855 264.687 18.759L263.756 19.7192C263.685 19.7927 263.607 19.8288 263.521 19.8276C263.434 19.8263 263.354 19.7911 263.281 19.722Z" fill="white"/>
</svg>
