<svg width="18" height="18" viewBox="0 0 18 18" fill="none" xmlns="http://www.w3.org/2000/svg">
<path d="M9.05774 14.25C7.59211 14.25 6.35071 13.7416 5.33352 12.7249C4.31633 11.7081 3.80774 10.4673 3.80774 9.00229C3.80774 7.5373 4.31633 6.29567 5.33352 5.27739C6.35071 4.25913 7.59211 3.75 9.05774 3.75C9.94909 3.75 10.7837 3.96177 11.5616 4.38532C12.3395 4.80889 12.9664 5.39999 13.4424 6.15864V3.75H14.1924V7.67308H10.2693V6.92308H13.0443C12.6539 6.17501 12.1046 5.58414 11.3964 5.15048C10.6883 4.71683 9.9087 4.5 9.05774 4.5C7.80774 4.5 6.74524 4.9375 5.87024 5.8125C4.99524 6.6875 4.55774 7.75 4.55774 9C4.55774 10.25 4.99524 11.3125 5.87024 12.1875C6.74524 13.0625 7.80774 13.5 9.05774 13.5C10.0202 13.5 10.889 13.225 11.664 12.675C12.439 12.125 12.9827 11.4 13.2952 10.5H14.0914C13.7606 11.6231 13.1323 12.5288 12.2063 13.2173C11.2803 13.9058 10.2308 14.25 9.05774 14.25Z" fill="white"/>
</svg>
