<svg width="16" height="16" viewBox="0 0 16 16" fill="none" xmlns="http://www.w3.org/2000/svg">
<path d="M9 15.3329C8.98333 15.3329 8.966 15.3315 8.94933 15.3289L0.282667 13.9955C0.12 13.9702 0 13.8302 0 13.6662V2.33285C0 2.17752 0.107333 2.04285 0.258667 2.00819L8.92533 0.00818762C9.024 -0.0138124 9.12867 0.0088543 9.208 0.0721876C9.28733 0.134854 9.33333 0.230854 9.33333 0.332854V14.9995C9.33333 15.0969 9.29133 15.1895 9.21733 15.2522C9.156 15.3049 9.07933 15.3329 9 15.3329ZM0.666667 13.3802L8.66667 14.6109V0.751521L0.666667 2.59819V13.3802Z" fill="#F8F8F8"/>
<path d="M15.6666 13.9995H8.99996C8.81596 13.9995 8.66663 13.8502 8.66663 13.6662C8.66663 13.4822 8.81596 13.3329 8.99996 13.3329H15.3333V1.99952H8.99996C8.81596 1.99952 8.66663 1.85019 8.66663 1.66619C8.66663 1.48219 8.81596 1.33286 8.99996 1.33286H15.6666C15.8506 1.33286 16 1.48152 16 1.66619V13.6662C16 13.8502 15.8506 13.9995 15.6666 13.9995Z" fill="#F8F8F8"/>
<path d="M6.33333 10.6662C6.22199 10.6662 6.11333 10.6109 6.05066 10.5095L2.71733 5.1762C2.61999 5.01954 2.66733 4.8142 2.82333 4.71687C2.97999 4.61887 3.18533 4.6662 3.28266 4.82287L6.61599 10.1562C6.71333 10.3122 6.66599 10.5182 6.50999 10.6155C6.45533 10.6495 6.39399 10.6662 6.33333 10.6662Z" fill="#F8F8F8"/>
<path d="M2.99999 10.6662C2.93999 10.6662 2.87866 10.6502 2.82333 10.6155C2.66733 10.5182 2.61999 10.3122 2.71733 10.1562L6.05066 4.82287C6.14799 4.6662 6.35333 4.61887 6.50999 4.71687C6.66599 4.8142 6.71333 5.01954 6.61599 5.1762L3.28266 10.5095C3.21933 10.6109 3.11066 10.6662 2.99999 10.6662Z" fill="#F8F8F8"/>
<path d="M11.6667 13.9995C11.4827 13.9995 11.3334 13.8502 11.3334 13.6662V1.66619C11.3334 1.48219 11.4827 1.33286 11.6667 1.33286C11.8507 1.33286 12 1.48152 12 1.66619V13.6662C12 13.8502 11.8507 13.9995 11.6667 13.9995Z" fill="#F8F8F8"/>
<path d="M15.6666 11.9995H8.99996C8.81596 11.9995 8.66663 11.8502 8.66663 11.6662C8.66663 11.4822 8.81596 11.3329 8.99996 11.3329H15.6666C15.8506 11.3329 16 11.4822 16 11.6662C16 11.8502 15.8506 11.9995 15.6666 11.9995Z" fill="#F8F8F8"/>
<path d="M15.6666 9.99952H8.99996C8.81596 9.99952 8.66663 9.85019 8.66663 9.66619C8.66663 9.48219 8.81596 9.33286 8.99996 9.33286H15.6666C15.8506 9.33286 16 9.48219 16 9.66619C16 9.85019 15.8506 9.99952 15.6666 9.99952Z" fill="#F8F8F8"/>
<path d="M15.6666 7.99952H8.99996C8.81596 7.99952 8.66663 7.85019 8.66663 7.66619C8.66663 7.48219 8.81596 7.33286 8.99996 7.33286H15.6666C15.8506 7.33286 16 7.48219 16 7.66619C16 7.85019 15.8506 7.99952 15.6666 7.99952Z" fill="#F8F8F8"/>
<path d="M15.6666 5.99952H8.99996C8.81596 5.99952 8.66663 5.85019 8.66663 5.66619C8.66663 5.48219 8.81596 5.33286 8.99996 5.33286H15.6666C15.8506 5.33286 16 5.48152 16 5.66619C16 5.85086 15.8506 5.99952 15.6666 5.99952Z" fill="#F8F8F8"/>
<path d="M15.6666 3.99952H8.99996C8.81596 3.99952 8.66663 3.85019 8.66663 3.66619C8.66663 3.48219 8.81596 3.33286 8.99996 3.33286H15.6666C15.8506 3.33286 16 3.48152 16 3.66619C16 3.85086 15.8506 3.99952 15.6666 3.99952Z" fill="#F8F8F8"/>
</svg>
